HIERARCHY
ROOT mixamorig:Hips
{
  OFFSET 0.000000 0.000000 0.000000
  CHANNELS 6 Xposition Yposition Zposition Zrotation Xrotation Yrotation
  JOINT mixamorig:Spine
  {
    OFFSET 0.000000 9.878500 1.258800
    CHANNELS 3 Zrotation Xrotation Yrotation
    JOINT mixamorig:Spine1
    {
      OFFSET 0.000000 11.272100 0.038100
      CHANNELS 3 Zrotation Xrotation Yrotation
      JOINT mixamorig:Spine2
      {
        OFFSET 0.000000 10.749001 -0.597600
        CHANNELS 3 Zrotation Xrotation Yrotation
        JOINT mixamorig:Neck
        {
          OFFSET 0.000000 12.015200 -1.691700
          CHANNELS 3 Zrotation Xrotation Yrotation
          JOINT mixamorig:Head
          {
            OFFSET 0.000000 8.810500 2.213900
            CHANNELS 3 Zrotation Xrotation Yrotation
            End Site
            {
              OFFSET 0.000000 18.232300 3.738000
            }
          }
        }
        JOINT mixamorig:LeftShoulder
        {
          OFFSET 6.002800 8.887900 -2.628900
          CHANNELS 3 Zrotation Xrotation Yrotation
          JOINT mixamorig:LeftArm
          {
            OFFSET 12.046300 0.000000 0.000000
            CHANNELS 3 Zrotation Xrotation Yrotation
            JOINT mixamorig:LeftForeArm
            {
              OFFSET 27.876501 0.000000 0.000000
              CHANNELS 3 Zrotation Xrotation Yrotation
              JOINT mixamorig:LeftHand
              {
                OFFSET 25.438500 0.000000 0.000000
                CHANNELS 3 Zrotation Xrotation Yrotation
                End Site
                {
                  OFFSET 10.0 0.0 0.0
                }
              }
            }
          }
        }
        JOINT mixamorig:RightShoulder
        {
          OFFSET -6.002800 8.887900 -2.628900
          CHANNELS 3 Zrotation Xrotation Yrotation
          JOINT mixamorig:RightArm
          {
            OFFSET -12.046300 0.000000 0.000000
            CHANNELS 3 Zrotation Xrotation Yrotation
            JOINT mixamorig:RightForeArm
            {
              OFFSET -27.876501 0.000000 0.000000
              CHANNELS 3 Zrotation Xrotation Yrotation
              JOINT mixamorig:RightHand
              {
                OFFSET -25.438500 0.000000 0.000000
                CHANNELS 3 Zrotation Xrotation Yrotation
                End Site
                {
                  OFFSET -10.0 0.0 0.0
                }
              }
            }
          }
        }
      }
    }
  }
}
MOTION
Frames: 17
Frame Time: 0.033333
45.8859 -97.7341 -0.0110 0.0000 0.0000 0.0000 -0.8412 -17.1080 0.1265 0.0000 0.0000 0.0000 0.0000 0.0000 0.0000 0.0000 0.0000 0.0000 0.0000 0.0000 0.0000 0.0000 0.0000 0.0000 -69.9955 -23.2172 -32.7039 -87.3023 -7.5641 -7.9278 0.0000 0.0000 0.0000 0.0000 0.0000 0.0000 55.9257 24.8109 -45.0123 -16.2402 -18.2315 -96.7125 0.0000 0.0000 0.0000
45.9838 -97.6660 -0.0109 0.0000 0.0000 0.0000 -0.7545 -16.8772 0.1119 0.0000 0.0000 0.0000 0.0000 0.0000 0.0000 0.0000 0.0000 0.0000 0.0000 0.0000 0.0000 0.0000 0.0000 0.0000 -70.9425 -22.5703 -31.2905 -88.2016 -4.0320 -4.1605 0.0000 0.0000 0.0000 0.0000 0.0000 0.0000 56.0659 24.8122 -44.8950 -16.7672 -19.0141 -97.3036 0.0000 0.0000 0.0000
46.0211 -97.6475 -0.0110 0.0000 0.0000 0.0000 -0.7652 -15.5002 0.1041 0.0000 0.0000 0.0000 0.0000 0.0000 0.0000 0.0000 0.0000 0.0000 0.0000 0.0000 0.0000 0.0000 0.0000 0.0000 -71.0297 -22.5417 -31.2040 -87.9178 -5.1993 -5.3915 0.0000 0.0000 0.0000 0.0000 0.0000 0.0000 57.2556 24.5220 -43.4187 -15.4774 -17.6189 -97.5077 0.0000 0.0000 0.0000
46.0403 -97.5739 -0.0105 0.0000 0.0000 0.0000 -0.8320 -15.7068 0.1148 0.0000 0.0000 0.0000 0.0000 0.0000 0.0000 0.0000 0.0000 0.0000 0.0000 0.0000 0.0000 0.0000 0.0000 0.0000 -71.8197 -22.1177 -30.2086 -88.3161 -2.5574 -2.6336 0.0000 0.0000 0.0000 0.0000 0.0000 0.0000 57.1709 24.5099 -43.4680 -14.0919 -15.9016 -96.9845 0.0000 0.0000 0.0000
46.0983 -97.5992 -0.0099 0.0000 0.0000 0.0000 -0.8149 -11.5788 0.0826 0.0000 0.0000 0.0000 0.0000 0.0000 0.0000 0.0000 0.0000 0.0000 0.0000 0.0000 0.0000 0.0000 0.0000 0.0000 -71.5768 -22.3465 -30.6444 -86.5817 -10.1975 -10.8211 0.0000 0.0000 0.0000 0.0000 0.0000 0.0000 59.1544 23.9735 -41.0204 -15.3731 -17.3348 -96.9580 0.0000 0.0000 0.0000
46.1112 -97.5935 -0.0100 0.0000 0.0000 0.0000 -0.8498 -10.8446 0.0807 0.0000 0.0000 0.0000 0.0000 0.0000 0.0000 0.0000 0.0000 0.0000 0.0000 0.0000 0.0000 0.0000 0.0000 0.0000 -73.2490 -21.2616 -28.3435 -86.8665 -8.7634 -9.2542 0.0000 0.0000 0.0000 0.0000 0.0000 0.0000 56.5929 24.6112 -44.1142 -14.0008 -15.7164 -96.6824 0.0000 0.0000 0.0000
46.1782 -97.6147 -0.0096 0.0000 0.0000 0.0000 -0.7953 -13.5862 0.0947 0.0000 0.0000 0.0000 0.0000 0.0000 0.0000 0.0000 0.0000 0.0000 0.0000 0.0000 0.0000 0.0000 0.0000 0.0000 -73.1711 -21.3674 -28.5208 -87.8594 -5.5955 -5.8082 0.0000 0.0000 0.0000 0.0000 0.0000 0.0000 47.9137 25.5022 -53.9797 -11.4329 -12.7080 -96.0919 0.0000 0.0000 0.0000
46.1622 -97.5772 -0.0097 0.0000 0.0000 0.0000 -0.8343 -13.3609 0.0977 0.0000 0.0000 0.0000 0.0000 0.0000 0.0000 0.0000 0.0000 0.0000 0.0000 0.0000 0.0000 0.0000 0.0000 0.0000 -73.8127 -20.7893 -27.4525 -88.4503 1.4902 1.5311 0.0000 0.0000 0.0000 0.0000 0.0000 0.0000 50.0761 25.4465 -51.5947 -11.8987 -13.2399 -96.1570 0.0000 0.0000 0.0000
46.1494 -97.5772 -0.0089 0.0000 0.0000 0.0000 -0.8526 -10.1474 0.0757 0.0000 0.0000 0.0000 0.0000 0.0000 0.0000 0.0000 0.0000 0.0000 0.0000 0.0000 0.0000 0.0000 0.0000 0.0000 -72.3798 -21.8198 -29.5189 -87.1555 -8.5973 -9.0333 0.0000 0.0000 0.0000 0.0000 0.0000 0.0000 53.4665 25.1377 -47.7539 -12.8692 -14.3620 -96.3344 0.0000 0.0000 0.0000
46.1705 -97.7272 -0.0084 0.0000 0.0000 0.0000 -0.8506 -8.9983 0.0669 0.0000 0.0000 0.0000 0.0000 0.0000 0.0000 0.0000 0.0000 0.0000 0.0000 0.0000 0.0000 0.0000 0.0000 0.0000 -72.3669 -21.8081 -29.5102 -88.0618 -5.3419 -5.5255 0.0000 0.0000 0.0000 0.0000 0.0000 0.0000 53.6159 25.0949 -47.5420 -12.4654 -13.8799 -96.2008 0.0000 0.0000 0.0000
46.1736 -97.7278 -0.0093 0.0000 0.0000 0.0000 -0.9380 -7.9983 0.0656 0.0000 0.0000 0.0000 0.0000 0.0000 0.0000 0.0000 0.0000 0.0000 0.0000 0.0000 0.0000 0.0000 0.0000 0.0000 -73.3990 -21.1550 -28.1301 -88.2485 -4.3615 -4.4968 0.0000 0.0000 0.0000 0.0000 0.0000 0.0000 54.4249 24.9373 -46.5378 -13.1336 -14.6891 -96.4628 0.0000 0.0000 0.0000
46.1945 -97.7584 -0.0094 0.0000 0.0000 0.0000 -0.9257 -11.9805 0.0971 0.0000 0.0000 0.0000 0.0000 0.0000 0.0000 0.0000 0.0000 0.0000 0.0000 0.0000 0.0000 0.0000 0.0000 0.0000 -71.8923 -22.1764 -30.2486 -86.4535 -10.6781 -11.3561 0.0000 0.0000 0.0000 0.0000 0.0000 0.0000 54.5664 24.9541 -46.4407 -13.2831 -14.9448 -96.8064 0.0000 0.0000 0.0000
46.1996 -97.7585 -0.0097 0.0000 0.0000 0.0000 -0.9314 -14.5340 0.1188 0.0000 0.0000 0.0000 0.0000 0.0000 0.0000 0.0000 0.0000 0.0000 0.0000 0.0000 0.0000 0.0000 0.0000 0.0000 -71.6435 -22.2064 -30.4209 -88.0112 -6.1030 -6.3182 0.0000 0.0000 0.0000 0.0000 0.0000 0.0000 55.3718 24.8674 -45.5849 -12.3963 -13.9857 -96.9561 0.0000 0.0000 0.0000
46.2245 -97.9503 -0.0095 0.0000 0.0000 0.0000 -0.9281 -15.0114 0.1223 0.0000 0.0000 0.0000 0.0000 0.0000 0.0000 0.0000 0.0000 0.0000 0.0000 0.0000 0.0000 0.0000 0.0000 0.0000 -70.0022 -22.7651 -32.0800 -88.6406 -6.1446 -6.2918 0.0000 0.0000 0.0000 0.0000 0.0000 0.0000 58.4655 24.2126 -41.9418 -12.2043 -13.8556 -97.3137 0.0000 0.0000 0.0000
46.1526 -98.0905 -0.0093 0.0000 0.0000 0.0000 -1.0178 -15.1309 0.1352 0.0000 0.0000 0.0000 0.0000 0.0000 0.0000 0.0000 0.0000 0.0000 0.0000 0.0000 0.0000 0.0000 0.0000 0.0000 -68.8815 -23.0695 -33.1463 -89.2630 -6.3564 -6.4385 0.0000 0.0000 0.0000 0.0000 0.0000 0.0000 61.0814 23.3941 -38.6728 -11.7285 -13.3947 -97.6493 0.0000 0.0000 0.0000
46.1976 -98.0837 -0.0096 0.0000 0.0000 0.0000 -0.9690 -15.6735 0.1334 0.0000 0.0000 0.0000 0.0000 0.0000 0.0000 0.0000 0.0000 0.0000 0.0000 0.0000 0.0000 0.0000 0.0000 0.0000 -66.0443 -24.0322 -36.2655 -85.0877 -18.1076 -19.7002 0.0000 0.0000 0.0000 0.0000 0.0000 0.0000 61.6741 23.2114 -37.9678 -11.3891 -13.0666 -97.9075 0.0000 0.0000 0.0000
46.1533 -97.9729 -0.0095 0.0000 0.0000 0.0000 -1.0694 -15.6789 0.1473 0.0000 0.0000 0.0000 0.0000 0.0000 0.0000 0.0000 0.0000 0.0000 0.0000 0.0000 0.0000 0.0000 0.0000 0.0000 -66.4951 -23.4562 -35.1434 -93.7914 -2.7231 -2.5487 0.0000 0.0000 0.0000 0.0000 0.0000 0.0000 62.7966 22.7134 -36.4293 -11.3689 -13.0199 -97.8038 0.0000 0.0000 0.0000
